<svg xmlns="http://www.w3.org/2000/svg" viewBox="0 0 640 420">
  <defs>
    <linearGradient id="bg2" x1="0" y1="0" x2="1" y2="1">
      <stop offset="0%" stop-color="#0f172a"/>
      <stop offset="100%" stop-color="#0b1020"/>
    </linearGradient>
    <linearGradient id="p2" x1="0" y1="0" x2="1" y2="0">
      <stop offset="0%" stop-color="#06b6d4"/>
      <stop offset="100%" stop-color="#22c55e"/>
    </linearGradient>
  </defs>
  <rect width="640" height="420" fill="url(#bg2)"/>
  <g transform="translate(60,150)">
    <path d="M40 34 H420 c24 0 52 24 70 50 h24 c14 0 26 12 26 26 v24 H20 v-20 c0-20 14-38 34-42 l26-5 c10-16 26-33 44-33z" fill="#e5e7eb"/>
    <circle cx="140" cy="150" r="30" fill="#0b0d10"/>
    <circle cx="360" cy="150" r="30" fill="#0b0d10"/>
    <circle cx="140" cy="150" r="12" fill="#9aa3af"/>
    <circle cx="360" cy="150" r="12" fill="#9aa3af"/>
    <path d="M110 34 c34-30 110-30 140 0 H110z" fill="url(#p2)"/>
  </g>
</svg>


