<svg xmlns="http://www.w3.org/2000/svg" viewBox="0 0 640 420">
  <defs>
    <linearGradient id="bg3" x1="0" y1="0" x2="1" y2="1">
      <stop offset="0%" stop-color="#0b1220"/>
      <stop offset="100%" stop-color="#0a0f1a"/>
    </linearGradient>
    <linearGradient id="p3" x1="0" y1="0" x2="1" y2="0">
      <stop offset="0%" stop-color="#f59e0b"/>
      <stop offset="100%" stop-color="#ef4444"/>
    </linearGradient>
  </defs>
  <rect width="640" height="420" fill="url(#bg3)"/>
  <g transform="translate(60,150)">
    <path d="M36 36 H420 c26 0 58 28 78 54 h20 c16 0 28 12 28 28 v22 H16 v-20 c0-22 16-38 34-42 l28-6 c10-18 28-36 46-36z" fill="#e5e7eb"/>
    <circle cx="140" cy="150" r="30" fill="#0b0d10"/>
    <circle cx="360" cy="150" r="30" fill="#0b0d10"/>
    <circle cx="140" cy="150" r="12" fill="#9aa3af"/>
    <circle cx="360" cy="150" r="12" fill="#9aa3af"/>
    <path d="M100 36 c36-36 120-36 150 0 H100z" fill="url(#p3)"/>
  </g>
</svg>


