<svg xmlns="http://www.w3.org/2000/svg" viewBox="0 0 640 420">
  <defs>
    <linearGradient id="bg6" x1="0" y1="0" x2="1" y2="1">
      <stop offset="0%" stop-color="#0b0f1a"/>
      <stop offset="100%" stop-color="#0b1220"/>
    </linearGradient>
    <linearGradient id="p6" x1="0" y1="0" x2="1" y2="0">
      <stop offset="0%" stop-color="#f43f5e"/>
      <stop offset="100%" stop-color="#f59e0b"/>
    </linearGradient>
  </defs>
  <rect width="640" height="420" fill="url(#bg6)"/>
  <g transform="translate(60,150)">
    <path d="M36 40 H420 c28 0 60 30 80 56 h18 c16 0 28 12 28 28 v22 H16 v-20 c0-22 14-38 34-42 l30-6 c10-18 28-36 46-36z" fill="#e5e7eb"/>
    <circle cx="140" cy="150" r="30" fill="#0b0d10"/>
    <circle cx="360" cy="150" r="30" fill="#0b0d10"/>
    <circle cx="140" cy="150" r="12" fill="#9aa3af"/>
    <circle cx="360" cy="150" r="12" fill="#9aa3af"/>
    <path d="M110 40 c36-34 120-34 150 0 H110z" fill="url(#p6)"/>
  </g>
</svg>


