<svg xmlns="http://www.w3.org/2000/svg" viewBox="0 0 640 420">
  <defs>
    <linearGradient id="bg7" x1="0" y1="0" x2="1" y2="1">
      <stop offset="0%" stop-color="#0b1020"/>
      <stop offset="100%" stop-color="#111827"/>
    </linearGradient>
    <linearGradient id="p7" x1="0" y1="0" x2="1" y2="0">
      <stop offset="0%" stop-color="#22d3ee"/>
      <stop offset="100%" stop-color="#6366f1"/>
    </linearGradient>
  </defs>
  <rect width="640" height="420" fill="url(#bg7)"/>
  <g transform="translate(60,150)">
    <path d="M44 32 H420 c24 0 54 26 72 52 h22 c16 0 30 14 30 30 v22 H24 v-20 c0-22 16-40 36-44 l24-4 c10-18 26-36 44-36z" fill="#e5e7eb"/>
    <circle cx="140" cy="150" r="30" fill="#0b0d10"/>
    <circle cx="360" cy="150" r="30" fill="#0b0d10"/>
    <circle cx="140" cy="150" r="12" fill="#9aa3af"/>
    <circle cx="360" cy="150" r="12" fill="#9aa3af"/>
    <path d="M120 32 c36-30 120-30 152 0 H120z" fill="url(#p7)"/>
  </g>
</svg>


