<svg xmlns="http://www.w3.org/2000/svg" viewBox="0 0 1600 900" width="1600" height="900">
  <defs>
    <linearGradient id="g" x1="0" y1="0" x2="1" y2="1">
      <stop offset="0%" stop-color="#1f2937"/>
      <stop offset="100%" stop-color="#0b1020"/>
    </linearGradient>
    <linearGradient id="accent" x1="0" y1="0" x2="1" y2="0">
      <stop offset="0%" stop-color="#4f46e5"/>
      <stop offset="100%" stop-color="#06b6d4"/>
    </linearGradient>
    <filter id="blur"><feGaussianBlur stdDeviation="40"/></filter>
  </defs>
  <rect width="100%" height="100%" fill="url(#g)"/>
  <circle cx="1300" cy="-100" r="380" fill="#4f46e5" opacity="0.2" filter="url(#blur)"/>
  <circle cx="200" cy="100" r="320" fill="#06b6d4" opacity="0.18" filter="url(#blur)"/>
  <g transform="translate(250,470) scale(1.4)" fill="#e5e7eb">
    <path d="M60 40 H420 c30 0 60 30 80 60 h30 c20 0 40 20 40 40 v20 H40 v-20 c0-25 18-45 43-49 l27-5 c10-20 30-46 50-46z" opacity="0.9"/>
    <circle cx="150" cy="160" r="36" fill="#0b0d10"/>
    <circle cx="350" cy="160" r="36" fill="#0b0d10"/>
    <circle cx="150" cy="160" r="16" fill="#9aa3af"/>
    <circle cx="350" cy="160" r="16" fill="#9aa3af"/>
    <path d="M120 40 c40-40 120-40 160 0 h-160z" fill="url(#accent)" opacity="0.9"/>
  </g>
</svg>


